<mxfile host="65bd71144e">
    <diagram id="y7P5SH2r-6nMVNBmGLvI" name="第 1 页">
        <mxGraphModel dx="797" dy="585" grid="1" gridSize="10" guides="1" tooltips="1" connect="1" arrows="1" fold="1" page="1" pageScale="1" pageWidth="3300" pageHeight="4681" math="0" shadow="0">
            <root>
                <mxCell id="0"/>
                <mxCell id="1" parent="0"/>
                <mxCell id="2" value="" style="shape=mxgraph.signs.transportation.car_4;html=1;pointerEvents=1;strokeColor=#d6b656;verticalLabelPosition=bottom;verticalAlign=top;align=center;fillColor=#fff2cc;" parent="1" vertex="1">
                    <mxGeometry x="390" y="200" width="98" height="86" as="geometry"/>
                </mxCell>
                <mxCell id="3" value="" style="image;html=1;image=img/lib/clip_art/people/Construction_Worker_Man_128x128.png" parent="1" vertex="1">
                    <mxGeometry x="200" y="250" width="80" height="80" as="geometry"/>
                </mxCell>
                <mxCell id="5" value="" style="image;html=1;image=img/lib/clip_art/people/Construction_Worker_Man_Black_128x128.png;fillColor=#CCCCCC;" parent="1" vertex="1">
                    <mxGeometry x="240" y="100" width="80" height="80" as="geometry"/>
                </mxCell>
                <mxCell id="6" value="Wax" style="endArrow=classic;html=1;entryX=0;entryY=0.649;entryDx=0;entryDy=0;entryPerimeter=0;" parent="1" source="3" target="2" edge="1">
                    <mxGeometry relative="1" as="geometry">
                        <mxPoint x="270" y="290" as="sourcePoint"/>
                        <mxPoint x="380" y="270" as="targetPoint"/>
                    </mxGeometry>
                </mxCell>
                <mxCell id="8" value="Buff" style="endArrow=classic;html=1;entryX=0.23;entryY=0.01;entryDx=0;entryDy=0;entryPerimeter=0;" parent="1" source="5" target="2" edge="1">
                    <mxGeometry relative="1" as="geometry">
                        <mxPoint x="290" y="300" as="sourcePoint"/>
                        <mxPoint x="390" y="280" as="targetPoint"/>
                    </mxGeometry>
                </mxCell>
                <mxCell id="9" value="wait for buff" style="endArrow=classic;html=1;entryX=0;entryY=0.649;entryDx=0;entryDy=0;entryPerimeter=0;" parent="1" edge="1">
                    <mxGeometry relative="1" as="geometry">
                        <mxPoint x="280" y="302.5337333333333" as="sourcePoint"/>
                        <mxPoint x="390" y="277.46399999999994" as="targetPoint"/>
                    </mxGeometry>
                </mxCell>
                <mxCell id="10" value="wait for wax" style="endArrow=classic;html=1;entryX=0;entryY=0.649;entryDx=0;entryDy=0;entryPerimeter=0;exitX=0.869;exitY=1.015;exitDx=0;exitDy=0;exitPerimeter=0;" parent="1" source="5" edge="1">
                    <mxGeometry relative="1" as="geometry">
                        <mxPoint x="270" y="235.07373333333334" as="sourcePoint"/>
                        <mxPoint x="380" y="210.00399999999996" as="targetPoint"/>
                    </mxGeometry>
                </mxCell>
                <mxCell id="18" value="" style="shape=mxgraph.signs.transportation.car_4;html=1;pointerEvents=1;strokeColor=#d6b656;verticalLabelPosition=bottom;verticalAlign=top;align=center;fillColor=#fff2cc;" parent="1" vertex="1">
                    <mxGeometry x="216" y="510" width="98" height="86" as="geometry"/>
                </mxCell>
                <mxCell id="19" value="" style="image;html=1;image=img/lib/clip_art/people/Construction_Worker_Man_128x128.png" parent="1" vertex="1">
                    <mxGeometry x="32" y="560" width="80" height="80" as="geometry"/>
                </mxCell>
                <mxCell id="20" value="" style="image;html=1;image=img/lib/clip_art/people/Construction_Worker_Man_Black_128x128.png;fillColor=#CCCCCC;" parent="1" vertex="1">
                    <mxGeometry x="72" y="410" width="80" height="80" as="geometry"/>
                </mxCell>
                <mxCell id="23" value="wait for buff" style="endArrow=classic;html=1;entryX=0;entryY=0.649;entryDx=0;entryDy=0;entryPerimeter=0;" parent="1" edge="1">
                    <mxGeometry relative="1" as="geometry">
                        <mxPoint x="112" y="612.5337333333333" as="sourcePoint"/>
                        <mxPoint x="222" y="587.4639999999999" as="targetPoint"/>
                    </mxGeometry>
                </mxCell>
                <mxCell id="26" value="" style="shape=mxgraph.signs.transportation.car_4;html=1;pointerEvents=1;strokeColor=#d6b656;verticalLabelPosition=bottom;verticalAlign=top;align=center;fillColor=#fff2cc;" parent="1" vertex="1">
                    <mxGeometry x="896" y="510" width="98" height="86" as="geometry"/>
                </mxCell>
                <mxCell id="27" value="" style="image;html=1;image=img/lib/clip_art/people/Construction_Worker_Man_128x128.png" parent="1" vertex="1">
                    <mxGeometry x="706" y="560" width="80" height="80" as="geometry"/>
                </mxCell>
                <mxCell id="28" value="" style="image;html=1;image=img/lib/clip_art/people/Construction_Worker_Man_Black_128x128.png;fillColor=#CCCCCC;" parent="1" vertex="1">
                    <mxGeometry x="746" y="410" width="80" height="80" as="geometry"/>
                </mxCell>
                <mxCell id="30" value="Buff" style="endArrow=classic;html=1;entryX=0.23;entryY=0.01;entryDx=0;entryDy=0;entryPerimeter=0;" parent="1" source="28" target="26" edge="1">
                    <mxGeometry relative="1" as="geometry">
                        <mxPoint x="796" y="610" as="sourcePoint"/>
                        <mxPoint x="896" y="590" as="targetPoint"/>
                    </mxGeometry>
                </mxCell>
                <mxCell id="31" value="wait for buff" style="endArrow=classic;html=1;entryX=0;entryY=0.649;entryDx=0;entryDy=0;entryPerimeter=0;" parent="1" edge="1">
                    <mxGeometry relative="1" as="geometry">
                        <mxPoint x="786" y="612.5337333333333" as="sourcePoint"/>
                        <mxPoint x="896" y="587.4639999999999" as="targetPoint"/>
                    </mxGeometry>
                </mxCell>
                <mxCell id="33" value="" style="shape=mxgraph.signs.transportation.car_4;html=1;pointerEvents=1;strokeColor=#666666;verticalLabelPosition=bottom;verticalAlign=top;align=center;fillColor=#f5f5f5;fontColor=#333333;" parent="1" vertex="1">
                    <mxGeometry x="1282" y="510" width="98" height="86" as="geometry"/>
                </mxCell>
                <mxCell id="34" value="" style="image;html=1;image=img/lib/clip_art/people/Construction_Worker_Man_128x128.png" parent="1" vertex="1">
                    <mxGeometry x="1092" y="560" width="80" height="80" as="geometry"/>
                </mxCell>
                <mxCell id="35" value="" style="image;html=1;image=img/lib/clip_art/people/Construction_Worker_Man_Black_128x128.png;fillColor=#CCCCCC;" parent="1" vertex="1">
                    <mxGeometry x="1132" y="410" width="80" height="80" as="geometry"/>
                </mxCell>
                <mxCell id="39" value="wait for wax" style="endArrow=classic;html=1;entryX=0;entryY=0.649;entryDx=0;entryDy=0;entryPerimeter=0;exitX=0.869;exitY=1.015;exitDx=0;exitDy=0;exitPerimeter=0;" parent="1" edge="1">
                    <mxGeometry relative="1" as="geometry">
                        <mxPoint x="142" y="480" as="sourcePoint"/>
                        <mxPoint x="212.48000000000002" y="508.80399999999986" as="targetPoint"/>
                    </mxGeometry>
                </mxCell>
                <mxCell id="40" value="wait for wax" style="endArrow=classic;html=1;entryX=0;entryY=0.649;entryDx=0;entryDy=0;entryPerimeter=0;exitX=0.869;exitY=1.015;exitDx=0;exitDy=0;exitPerimeter=0;" parent="1" edge="1">
                    <mxGeometry relative="1" as="geometry">
                        <mxPoint x="1211.52" y="491.20000000000005" as="sourcePoint"/>
                        <mxPoint x="1282" y="520.0039999999999" as="targetPoint"/>
                    </mxGeometry>
                </mxCell>
                <mxCell id="41" value="Wax" style="endArrow=classic;html=1;entryX=0;entryY=0.649;entryDx=0;entryDy=0;entryPerimeter=0;" parent="1" edge="1">
                    <mxGeometry relative="1" as="geometry">
                        <mxPoint x="1162" y="596.0037333333333" as="sourcePoint"/>
                        <mxPoint x="1272" y="570.934" as="targetPoint"/>
                    </mxGeometry>
                </mxCell>
                <mxCell id="42" value="" style="shape=mxgraph.signs.transportation.car_4;html=1;pointerEvents=1;strokeColor=#d6b656;verticalLabelPosition=bottom;verticalAlign=top;align=center;fillColor=#fff2cc;" parent="1" vertex="1">
                    <mxGeometry x="692" y="140" width="98" height="86" as="geometry"/>
                </mxCell>
                <mxCell id="43" value="" style="shape=mxgraph.signs.transportation.car_4;html=1;pointerEvents=1;strokeColor=#666666;verticalLabelPosition=bottom;verticalAlign=top;align=center;fillColor=#f5f5f5;fontColor=#333333;" parent="1" vertex="1">
                    <mxGeometry x="692" y="260" width="98" height="86" as="geometry"/>
                </mxCell>
                <mxCell id="44" value="waxOn=false" style="text;html=1;strokeColor=none;fillColor=none;align=center;verticalAlign=middle;whiteSpace=wrap;rounded=0;fontSize=16;" parent="1" vertex="1">
                    <mxGeometry x="850" y="180" width="40" height="20" as="geometry"/>
                </mxCell>
                <mxCell id="45" value="waxOn=true" style="text;html=1;strokeColor=none;fillColor=none;align=center;verticalAlign=middle;whiteSpace=wrap;rounded=0;fontSize=16;" parent="1" vertex="1">
                    <mxGeometry x="850" y="286" width="40" height="20" as="geometry"/>
                </mxCell>
                <mxCell id="46" value="" style="shape=mxgraph.signs.transportation.car_4;html=1;pointerEvents=1;strokeColor=#d6b656;verticalLabelPosition=bottom;verticalAlign=top;align=center;fillColor=#fff2cc;" parent="1" vertex="1">
                    <mxGeometry x="370" y="950" width="98" height="86" as="geometry"/>
                </mxCell>
                <mxCell id="47" value="" style="image;html=1;image=img/lib/clip_art/people/Construction_Worker_Man_128x128.png" parent="1" vertex="1">
                    <mxGeometry x="180" y="1000" width="80" height="80" as="geometry"/>
                </mxCell>
                <mxCell id="48" value="" style="image;html=1;image=img/lib/clip_art/people/Construction_Worker_Man_Black_128x128.png;fillColor=#CCCCCC;" parent="1" vertex="1">
                    <mxGeometry x="220" y="850" width="80" height="80" as="geometry"/>
                </mxCell>
                <mxCell id="49" value="Wax" style="endArrow=classic;html=1;entryX=0;entryY=0.649;entryDx=0;entryDy=0;entryPerimeter=0;" parent="1" source="47" target="46" edge="1">
                    <mxGeometry relative="1" as="geometry">
                        <mxPoint x="250" y="1040" as="sourcePoint"/>
                        <mxPoint x="360" y="1020" as="targetPoint"/>
                    </mxGeometry>
                </mxCell>
                <mxCell id="50" value="Buff" style="endArrow=classic;html=1;entryX=0.23;entryY=0.01;entryDx=0;entryDy=0;entryPerimeter=0;" parent="1" source="48" target="46" edge="1">
                    <mxGeometry relative="1" as="geometry">
                        <mxPoint x="270" y="1050" as="sourcePoint"/>
                        <mxPoint x="370" y="1030" as="targetPoint"/>
                    </mxGeometry>
                </mxCell>
                <mxCell id="51" value="wait for buff" style="endArrow=classic;html=1;entryX=0;entryY=0.649;entryDx=0;entryDy=0;entryPerimeter=0;" parent="1" edge="1">
                    <mxGeometry relative="1" as="geometry">
                        <mxPoint x="260" y="1052.5337333333332" as="sourcePoint"/>
                        <mxPoint x="370" y="1027.464" as="targetPoint"/>
                    </mxGeometry>
                </mxCell>
                <mxCell id="52" value="wait for wax" style="endArrow=classic;html=1;entryX=0;entryY=0.649;entryDx=0;entryDy=0;entryPerimeter=0;exitX=0.869;exitY=1.015;exitDx=0;exitDy=0;exitPerimeter=0;" parent="1" source="48" edge="1">
                    <mxGeometry relative="1" as="geometry">
                        <mxPoint x="250" y="985.0737333333334" as="sourcePoint"/>
                        <mxPoint x="360" y="960.0039999999999" as="targetPoint"/>
                    </mxGeometry>
                </mxCell>
                <mxCell id="53" value="" style="shape=mxgraph.signs.transportation.car_4;html=1;pointerEvents=1;strokeColor=#d6b656;verticalLabelPosition=bottom;verticalAlign=top;align=center;fillColor=#fff2cc;" parent="1" vertex="1">
                    <mxGeometry x="672" y="890" width="98" height="86" as="geometry"/>
                </mxCell>
                <mxCell id="54" value="" style="shape=mxgraph.signs.transportation.car_4;html=1;pointerEvents=1;strokeColor=#666666;verticalLabelPosition=bottom;verticalAlign=top;align=center;fillColor=#f5f5f5;fontColor=#333333;" parent="1" vertex="1">
                    <mxGeometry x="672" y="1010" width="98" height="86" as="geometry"/>
                </mxCell>
                <mxCell id="55" value="waxOn=false" style="text;html=1;strokeColor=none;fillColor=none;align=center;verticalAlign=middle;whiteSpace=wrap;rounded=0;fontSize=16;" parent="1" vertex="1">
                    <mxGeometry x="830" y="930" width="40" height="20" as="geometry"/>
                </mxCell>
                <mxCell id="56" value="waxOn=true" style="text;html=1;strokeColor=none;fillColor=none;align=center;verticalAlign=middle;whiteSpace=wrap;rounded=0;fontSize=16;" parent="1" vertex="1">
                    <mxGeometry x="830" y="1036" width="40" height="20" as="geometry"/>
                </mxCell>
                <mxCell id="57" value="" style="image;html=1;image=img/lib/clip_art/people/Construction_Worker_Man_128x128.png" parent="1" vertex="1">
                    <mxGeometry x="240" y="1110" width="80" height="80" as="geometry"/>
                </mxCell>
                <mxCell id="58" value="Wax" style="endArrow=classic;html=1;" parent="1" source="57" edge="1">
                    <mxGeometry relative="1" as="geometry">
                        <mxPoint x="310" y="1150" as="sourcePoint"/>
                        <mxPoint x="380" y="1060" as="targetPoint"/>
                    </mxGeometry>
                </mxCell>
                <mxCell id="59" value="wait for buff" style="endArrow=classic;html=1;" parent="1" edge="1">
                    <mxGeometry relative="1" as="geometry">
                        <mxPoint x="320" y="1162.5337333333332" as="sourcePoint"/>
                        <mxPoint x="400" y="1070" as="targetPoint"/>
                    </mxGeometry>
                </mxCell>
                <mxCell id="60" value="" style="shape=mxgraph.signs.transportation.car_4;html=1;pointerEvents=1;strokeColor=#d6b656;verticalLabelPosition=bottom;verticalAlign=top;align=center;fillColor=#fff2cc;" parent="1" vertex="1">
                    <mxGeometry x="326" y="1510" width="98" height="86" as="geometry"/>
                </mxCell>
                <mxCell id="61" value="" style="image;html=1;image=img/lib/clip_art/people/Construction_Worker_Man_128x128.png" parent="1" vertex="1">
                    <mxGeometry x="136" y="1560" width="80" height="80" as="geometry"/>
                </mxCell>
                <mxCell id="62" value="" style="image;html=1;image=img/lib/clip_art/people/Construction_Worker_Man_Black_128x128.png;fillColor=#CCCCCC;" parent="1" vertex="1">
                    <mxGeometry x="176" y="1410" width="80" height="80" as="geometry"/>
                </mxCell>
                <mxCell id="66" value="wait for wax" style="endArrow=classic;html=1;entryX=0;entryY=0.649;entryDx=0;entryDy=0;entryPerimeter=0;exitX=0.869;exitY=1.015;exitDx=0;exitDy=0;exitPerimeter=0;" parent="1" source="62" edge="1">
                    <mxGeometry relative="1" as="geometry">
                        <mxPoint x="206" y="1545.0737333333334" as="sourcePoint"/>
                        <mxPoint x="316" y="1520.004" as="targetPoint"/>
                    </mxGeometry>
                </mxCell>
                <mxCell id="67" value="" style="image;html=1;image=img/lib/clip_art/people/Construction_Worker_Man_128x128.png" parent="1" vertex="1">
                    <mxGeometry x="196" y="1670" width="80" height="80" as="geometry"/>
                </mxCell>
                <mxCell id="70" value="" style="shape=mxgraph.signs.transportation.car_4;html=1;pointerEvents=1;strokeColor=#d6b656;verticalLabelPosition=bottom;verticalAlign=top;align=center;fillColor=#fff2cc;" parent="1" vertex="1">
                    <mxGeometry x="710" y="1510" width="98" height="86" as="geometry"/>
                </mxCell>
                <mxCell id="71" value="" style="image;html=1;image=img/lib/clip_art/people/Construction_Worker_Man_128x128.png" parent="1" vertex="1">
                    <mxGeometry x="520" y="1560" width="80" height="80" as="geometry"/>
                </mxCell>
                <mxCell id="72" value="" style="image;html=1;image=img/lib/clip_art/people/Construction_Worker_Man_Black_128x128.png;fillColor=#CCCCCC;" parent="1" vertex="1">
                    <mxGeometry x="560" y="1410" width="80" height="80" as="geometry"/>
                </mxCell>
                <mxCell id="77" value="" style="image;html=1;image=img/lib/clip_art/people/Construction_Worker_Man_128x128.png" parent="1" vertex="1">
                    <mxGeometry x="580" y="1670" width="80" height="80" as="geometry"/>
                </mxCell>
                <mxCell id="80" value="" style="shape=mxgraph.signs.transportation.car_4;html=1;pointerEvents=1;strokeColor=#d6b656;verticalLabelPosition=bottom;verticalAlign=top;align=center;fillColor=#fff2cc;" parent="1" vertex="1">
                    <mxGeometry x="1092" y="1510" width="98" height="86" as="geometry"/>
                </mxCell>
                <mxCell id="81" value="" style="image;html=1;image=img/lib/clip_art/people/Construction_Worker_Man_128x128.png" parent="1" vertex="1">
                    <mxGeometry x="902" y="1560" width="80" height="80" as="geometry"/>
                </mxCell>
                <mxCell id="82" value="" style="image;html=1;image=img/lib/clip_art/people/Construction_Worker_Man_Black_128x128.png;fillColor=#CCCCCC;" parent="1" vertex="1">
                    <mxGeometry x="942" y="1410" width="80" height="80" as="geometry"/>
                </mxCell>
                <mxCell id="87" value="" style="image;html=1;image=img/lib/clip_art/people/Construction_Worker_Man_128x128.png" parent="1" vertex="1">
                    <mxGeometry x="962" y="1670" width="80" height="80" as="geometry"/>
                </mxCell>
                <mxCell id="89" value="" style="shape=mxgraph.signs.transportation.car_4;html=1;pointerEvents=1;strokeColor=#b85450;verticalLabelPosition=bottom;verticalAlign=top;align=center;fillColor=#f8cecc;" parent="1" vertex="1">
                    <mxGeometry x="1450" y="1510" width="98" height="86" as="geometry"/>
                </mxCell>
                <mxCell id="90" value="" style="image;html=1;image=img/lib/clip_art/people/Construction_Worker_Man_128x128.png" parent="1" vertex="1">
                    <mxGeometry x="1260" y="1560" width="80" height="80" as="geometry"/>
                </mxCell>
                <mxCell id="91" value="" style="image;html=1;image=img/lib/clip_art/people/Construction_Worker_Man_Black_128x128.png;fillColor=#CCCCCC;" parent="1" vertex="1">
                    <mxGeometry x="1300" y="1410" width="80" height="80" as="geometry"/>
                </mxCell>
                <mxCell id="93" value="wait for wax" style="endArrow=classic;html=1;entryX=0;entryY=0.649;entryDx=0;entryDy=0;entryPerimeter=0;exitX=0.869;exitY=1.015;exitDx=0;exitDy=0;exitPerimeter=0;" parent="1" source="91" edge="1">
                    <mxGeometry relative="1" as="geometry">
                        <mxPoint x="1330" y="1545.0737333333334" as="sourcePoint"/>
                        <mxPoint x="1440" y="1520.004" as="targetPoint"/>
                    </mxGeometry>
                </mxCell>
                <mxCell id="94" value="" style="image;html=1;image=img/lib/clip_art/people/Construction_Worker_Man_128x128.png" parent="1" vertex="1">
                    <mxGeometry x="1320" y="1670" width="80" height="80" as="geometry"/>
                </mxCell>
                <mxCell id="96" value="" style="shape=mxgraph.signs.transportation.car_4;html=1;pointerEvents=1;strokeColor=#b85450;verticalLabelPosition=bottom;verticalAlign=top;align=center;fillColor=#f8cecc;" parent="1" vertex="1">
                    <mxGeometry x="672" y="1130" width="98" height="86" as="geometry"/>
                </mxCell>
                <mxCell id="97" value="illegal" style="text;html=1;strokeColor=none;fillColor=none;align=center;verticalAlign=middle;whiteSpace=wrap;rounded=0;fontSize=16;" parent="1" vertex="1">
                    <mxGeometry x="830" y="1156" width="40" height="20" as="geometry"/>
                </mxCell>
                <mxCell id="98" value="" style="image;html=1;image=img/lib/clip_art/people/Construction_Worker_Man_128x128.png" parent="1" vertex="1">
                    <mxGeometry x="350" y="560" width="80" height="80" as="geometry"/>
                </mxCell>
                <mxCell id="99" value="" style="image;html=1;image=img/lib/clip_art/people/Construction_Worker_Man_Black_128x128.png;fillColor=#CCCCCC;" parent="1" vertex="1">
                    <mxGeometry x="390" y="410" width="80" height="80" as="geometry"/>
                </mxCell>
                <mxCell id="100" value="Wax" style="endArrow=classic;html=1;entryX=0;entryY=0.649;entryDx=0;entryDy=0;entryPerimeter=0;" parent="1" source="98" edge="1">
                    <mxGeometry relative="1" as="geometry">
                        <mxPoint x="420" y="600" as="sourcePoint"/>
                        <mxPoint x="540" y="565.8140000000001" as="targetPoint"/>
                    </mxGeometry>
                </mxCell>
                <mxCell id="101" value="" style="shape=mxgraph.signs.transportation.car_4;html=1;pointerEvents=1;strokeColor=#666666;verticalLabelPosition=bottom;verticalAlign=top;align=center;fillColor=#f5f5f5;fontColor=#333333;" parent="1" vertex="1">
                    <mxGeometry x="540" y="510" width="98" height="86" as="geometry"/>
                </mxCell>
                <mxCell id="102" value="wait for wax" style="endArrow=classic;html=1;entryX=0;entryY=0.649;entryDx=0;entryDy=0;entryPerimeter=0;exitX=0.869;exitY=1.015;exitDx=0;exitDy=0;exitPerimeter=0;" parent="1" edge="1">
                    <mxGeometry relative="1" as="geometry">
                        <mxPoint x="459.52" y="480" as="sourcePoint"/>
                        <mxPoint x="530" y="508.80399999999986" as="targetPoint"/>
                    </mxGeometry>
                </mxCell>
                <mxCell id="103" value="notifyAll" style="endArrow=classic;html=1;entryX=0.377;entryY=1.046;entryDx=0;entryDy=0;entryPerimeter=0;dashed=1;" parent="1" target="99" edge="1">
                    <mxGeometry relative="1" as="geometry">
                        <mxPoint x="400" y="550" as="sourcePoint"/>
                        <mxPoint x="550" y="575.8140000000001" as="targetPoint"/>
                    </mxGeometry>
                </mxCell>
                <mxCell id="104" value="notifyAll" style="endArrow=classic;html=1;dashed=1;exitX=0.5;exitY=1;exitDx=0;exitDy=0;" parent="1" source="28" target="27" edge="1">
                    <mxGeometry relative="1" as="geometry">
                        <mxPoint x="785.9999999999999" y="460" as="sourcePoint"/>
                        <mxPoint x="760.16" y="560" as="targetPoint"/>
                    </mxGeometry>
                </mxCell>
                <mxCell id="105" value="notifyAll" style="endArrow=classic;html=1;entryX=0.377;entryY=1.046;entryDx=0;entryDy=0;entryPerimeter=0;dashed=1;" parent="1" edge="1">
                    <mxGeometry relative="1" as="geometry">
                        <mxPoint x="1151.84" y="556.32" as="sourcePoint"/>
                        <mxPoint x="1172" y="500.00000000000006" as="targetPoint"/>
                    </mxGeometry>
                </mxCell>
                <mxCell id="107" value="wait for buff" style="endArrow=classic;html=1;exitX=1;exitY=0.5;exitDx=0;exitDy=0;entryX=-0.005;entryY=0.612;entryDx=0;entryDy=0;entryPerimeter=0;" parent="1" source="61" target="60" edge="1">
                    <mxGeometry relative="1" as="geometry">
                        <mxPoint x="266" y="1695.0737333333332" as="sourcePoint"/>
                        <mxPoint x="320" y="1560" as="targetPoint"/>
                    </mxGeometry>
                </mxCell>
                <mxCell id="108" value="wait for wax" style="endArrow=classic;html=1;entryX=0;entryY=0.649;entryDx=0;entryDy=0;entryPerimeter=0;exitX=0.869;exitY=1.015;exitDx=0;exitDy=0;exitPerimeter=0;" parent="1" edge="1">
                    <mxGeometry relative="1" as="geometry">
                        <mxPoint x="641.52" y="1470" as="sourcePoint"/>
                        <mxPoint x="712" y="1498.8039999999999" as="targetPoint"/>
                    </mxGeometry>
                </mxCell>
                <mxCell id="109" value="wait for buff" style="endArrow=classic;html=1;entryX=0.087;entryY=1.019;entryDx=0;entryDy=0;entryPerimeter=0;" parent="1" edge="1">
                    <mxGeometry relative="1" as="geometry">
                        <mxPoint x="658" y="1707.443733333333" as="sourcePoint"/>
                        <mxPoint x="736.5260000000001" y="1620.004" as="targetPoint"/>
                    </mxGeometry>
                </mxCell>
                <mxCell id="112" value="wax" style="endArrow=classic;html=1;exitX=1;exitY=0.5;exitDx=0;exitDy=0;entryX=-0.005;entryY=0.612;entryDx=0;entryDy=0;entryPerimeter=0;" parent="1" edge="1">
                    <mxGeometry relative="1" as="geometry">
                        <mxPoint x="970" y="1597.37" as="sourcePoint"/>
                        <mxPoint x="1079.51" y="1560.002" as="targetPoint"/>
                    </mxGeometry>
                </mxCell>
                <mxCell id="113" value="wax" style="endArrow=classic;html=1;entryX=0.087;entryY=1.019;entryDx=0;entryDy=0;entryPerimeter=0;" parent="1" edge="1">
                    <mxGeometry relative="1" as="geometry">
                        <mxPoint x="1030" y="1697.443733333333" as="sourcePoint"/>
                        <mxPoint x="1108.526" y="1610.004" as="targetPoint"/>
                    </mxGeometry>
                </mxCell>
                <mxCell id="117" value="wait for wax" style="endArrow=classic;html=1;entryX=0;entryY=0.649;entryDx=0;entryDy=0;entryPerimeter=0;exitX=0.869;exitY=1.015;exitDx=0;exitDy=0;exitPerimeter=0;" edge="1" parent="1">
                    <mxGeometry relative="1" as="geometry">
                        <mxPoint x="1022" y="1481.2" as="sourcePoint"/>
                        <mxPoint x="1092.48" y="1510.004" as="targetPoint"/>
                    </mxGeometry>
                </mxCell>
            </root>
        </mxGraphModel>
    </diagram>
</mxfile>